<?xml version="1.0"?>
<svg xmlns="http://www.w3.org/2000/svg" id="Capa_1" enable-background="new 0 0 484 484" height="512px" viewBox="0 0 484 484" width="512px"><g><path d="m423 101c0-3.314-2.686-6-6-6h-350c-3.314 0-6 2.686-6 6v216c0 3.314 2.686 6 6 6h350c3.314 0 6-2.686 6-6zm-247.849 77h36.356l-.14 109h-36.075zm3.691-12 14.487-29.042 14.487 29.042zm-3.534 133h36.044l-.015 12h-36.015zm86.692-14h5.419c3.314 0 6-2.686 6-6s-2.686-6-6-6h-5.419v-14h13.96c3.314 0 6-2.686 6-6s-2.686-6-6-6h-13.96v-14h5.387c3.314 0 6-2.686 6-6s-2.686-6-6-6h-5.387v-14h13.96c3.314 0 6-2.686 6-6s-2.686-6-6-6h-13.96v-14h5.419c3.314 0 6-2.686 6-6s-2.686-6-6-6h-5.419v-14h13.928c3.314 0 6-2.686 6-6s-2.686-6-6-6h-13.928v-10h47v178h-47zm149 26h-90v-183.739c-.047-3.393-2.752-6.15-6.144-6.261h-59.321c-3.313 0-5.535 2.948-5.535 6.261v183.739h-26.663l.178-139.087c.001-.928-.215-1.843-.631-2.672l-24.184-48.475c-1.479-2.965-5.082-4.17-8.047-2.691-1.165.581-2.109 1.526-2.691 2.691l-24.186 48.483c-.416.825-.631 1.736-.63 2.659l.176 139.092h-90.322v-204h338z" data-original="#000000" class="active-path" data-old_color="#000000" fill="#B4B4B4"/><path d="m478.312 348h-15.312v-249.61c-.101-25.697-20.996-46.456-46.693-46.39h-348.614c-25.696-.065-46.591 20.694-46.693 46.39v249.61h-15.312c-3.313 0-5.688 3.1-5.688 6.415v31.195c-.105 25.515 20.494 46.285 46.01 46.39h.249 391.482c25.516.033 46.227-20.625 46.259-46.141 0-.083 0-.166 0-.249v-31.195c0-3.315-2.375-6.415-5.688-6.415zm-445.312-249.61c.095-19.072 15.621-34.463 34.693-34.39h348.614c19.073-.073 34.599 15.318 34.693 34.39v249.61h-149.481c-1.702.078-3.298.852-4.413 2.141l-8.234 8.826c-6.563 7.062-15.779 11.062-25.42 11.033h-42.9c-9.628.068-18.845-3.895-25.42-10.929l-8.234-9.036c-1.127-1.261-2.726-1.998-4.417-2.035h-149.481zm439 287.22c.111 18.882-15.107 34.279-33.989 34.389-.09.001-.18.001-.27.001h-391.482c-18.883.038-34.221-15.238-34.26-34.12 0-.09 0-.18.001-.27v-25.61h167.852l6.452 7c8.828 9.55 21.239 14.986 34.244 15h42.9c13.008-.011 25.422-5.448 34.252-15l6.452-7h167.848z" data-original="#000000" class="active-path" data-old_color="#000000" fill="#B4B4B4"/></g> </svg>
