<svg id="Layer_5" enable-background="new 0 0 64 64" height="512" viewBox="0 0 64 64" width="512" xmlns="http://www.w3.org/2000/svg"><path style="fill:#0a79df;" d="m56.696 11.717c1.4-1.1 2.304-2.803 2.304-4.717 0-3.309-2.691-6-6-6-2.185 0-4.096 1.178-5.145 2.929-.623-.572-1.445-.929-2.355-.929-1.93 0-3.5 1.57-3.5 3.5v9.605l-3.656.406c1.031-1.219 1.656-2.793 1.656-4.511 0-3.86-3.14-7-7-7s-7 3.14-7 7c0 2.038.88 3.869 2.274 5.149-3 .476-5.598 2.16-7.274 4.546v-.695c0-4.208-2.616-7.81-6.304-9.283 1.4-1.1 2.304-2.803 2.304-4.717 0-3.309-2.691-6-6-6s-6 2.691-6 6c0 1.914.904 3.617 2.304 4.717-3.688 1.473-6.304 5.075-6.304 9.283v6c0 2.206 1.794 4 4 4v16.5c0 1.93 1.57 3.5 3.5 3.5.98 0 1.864-.407 2.5-1.058.636.651 1.52 1.058 2.5 1.058 1.93 0 3.5-1.57 3.5-3.5v-16.5c.732 0 1.409-.212 2-.556v.556c0 2.757 2.243 5 5 5h1v4 1 17.5c0 2.481 2.019 4.5 4.5 4.5 1.421 0 2.675-.675 3.5-1.706.825 1.031 2.079 1.706 3.5 1.706 2.481 0 4.5-2.019 4.5-4.5v-34.617l2-.25v3.367c0 2.206 1.794 4 4 4v16.5c0 1.93 1.57 3.5 3.5 3.5.98 0 1.864-.407 2.5-1.058.636.651 1.52 1.058 2.5 1.058 1.93 0 3.5-1.57 3.5-3.5v-16.5c2.206 0 4-1.794 4-4v-6c0-4.208-2.616-7.81-6.304-9.283zm-2.727 8.9-.969.969-.969-.969.56-7.586c.136-.008.271-.031.409-.031s.273.014.409.021zm-4.969-9.157c.104.093.209.183.319.269-.106.042-.214.078-.319.124zm4-8.46c2.206 0 4 1.794 4 4s-1.794 4-4 4-4-1.794-4-4 1.794-4 4-4zm-25 9c0-2.757 2.243-5 5-5s5 2.243 5 5-2.243 5-5 5-5-2.243-5-5zm-16.031 8.617-.969.969-.969-.969.56-7.596c.136-.007.271-.021.409-.021s.273.014.409.021zm-4.969-13.617c0-2.206 1.794-4 4-4s4 1.794 4 4-1.794 4-4 4-4-1.794-4-4zm10 22v-7h-2v25.5c0 .827-.673 1.5-1.5 1.5s-1.5-.673-1.5-1.5v-19.5h-2v19.5c0 .827-.673 1.5-1.5 1.5s-1.5-.673-1.5-1.5v-25.5h-2v7c-1.103 0-2-.897-2-2v-6c0-3.56 2.339-6.581 5.559-7.616l-.59 7.999 3.031 3.031 3.031-3.031-.59-7.999c3.22 1.035 5.559 4.056 5.559 7.616v6c0 1.103-.897 2-2 2zm14.5 7c1.93 0 3.5-1.57 3.5-3.5s-1.57-3.5-3.5-3.5h-4.5v-2h8v5.5 6.5h-8v-3zm-2 25c-1.378 0-2.5-1.121-2.5-2.5v-17.5h5v17.5c0 1.379-1.122 2.5-2.5 2.5zm9.5-38.883v36.383c0 1.379-1.122 2.5-2.5 2.5s-2.5-1.121-2.5-2.5v-17.5h3v-16h-12v4h-2v2h8.5c.827 0 1.5.673 1.5 1.5s-.673 1.5-1.5 1.5h-7.5c-1.654 0-3-1.346-3-3v-3c0-4.962 4.038-9 9-9h4l10-1.105v-11.395c0-.827.673-1.5 1.5-1.5s1.5.673 1.5 1.5v11.969c0 1.51-1.13 2.79-2.628 2.977zm6 4.883v-3.654c.741-.152 1.422-.455 2-.892v6.546c-1.103 0-2-.897-2-2zm16 0c0 1.103-.897 2-2 2v-7h-2v25.5c0 .827-.673 1.5-1.5 1.5s-1.5-.673-1.5-1.5v-19.5h-2v19.5c0 .827-.673 1.5-1.5 1.5s-1.5-.673-1.5-1.5v-25.5h-1.489c.915-.911 1.489-2.158 1.489-3.531v-4.373c.498-.289 1.015-.535 1.559-.709l-.59 7.997 3.031 3.03 3.031-3.031-.59-7.999c3.22 1.035 5.559 4.056 5.559 7.616z"/></svg>