<?xml version="1.0"?>
<svg xmlns="http://www.w3.org/2000/svg" height="512px" viewBox="0 0 496 496" width="512px"><g><path d="m112 368h48v16h-48zm0 0" data-original="#000000" class="active-path" data-old_color="#000000" fill="#B4B4B4"/><path d="m472 336h-57.367188c-6.410156 0-12.441406 2.496094-16.976562 7.03125l-24.96875 24.96875h-44.6875c-13.230469 0-24 10.769531-24 24v32h-33.472656c-2.414063-6.777344-7.75-12.113281-14.527344-14.527344v-89.472656h56c13.230469 0 24-10.769531 24-24v-16c0-10.414062-6.710938-19.214844-16-22.527344v-18.953125c9.289062-3.3125 16-12.113281 16-22.527343h40c44.113281 0 80-35.886719 80-80 0-44.113282-35.886719-79.992188-80-79.992188-6.257812 0-12.496094.753906-18.640625 2.238281-17.398437-35.605469-53.304687-58.238281-93.359375-58.238281-32.121094 0-62.464844 14.976562-82.128906 40.304688-2.015625-.207032-3.960938-.304688-5.871094-.304688-23.160156 0-44.382812 12.558594-55.664062 32.480469-2.769532-.320313-5.550782-.480469-8.335938-.480469-39.695312 0-72 32.304688-72 72s32.304688 72 72 72h48c0 10.414062 6.710938 19.214844 16 22.527344v18.953125c-9.289062 3.3125-16 12.113281-16 22.527343v16c0 13.230469 10.769531 24 24 24h56v89.472657c-6.777344 2.414062-12.113281 7.75-14.527344 14.527343h-33.472656v-64c0-13.230468-10.769531-24-24-24h-57.367188c-6.410156 0-12.441406 2.496094-16.976562 7.03125l-24.96875 24.960938h-44.6875c-13.230469 0-24 10.769531-24 24v80c0 13.230469 10.769531 24 24 24h144c13.230469 0 24-10.769531 24-24v-32h33.472656c3.3125 9.289062 12.113282 16 22.527344 16s19.214844-6.710938 22.527344-16h33.472656v32c0 13.230469 10.769531 24 24 24h144c13.230469 0 24-10.769531 24-24v-112c0-13.230469-10.769531-24-24-24zm-168-96v16h-112v-16zm16-24c0 4.40625-3.59375 8-8 8h-128c-4.40625 0-8-3.59375-8-8v-16c0-4.40625 3.59375-8 8-8h128c4.40625 0 8 3.59375 8 8zm-128-40v-16h112v16zm120-32h-128c-4.40625 0-8-3.59375-8-8v-16c0-4.40625 3.59375-8 8-8h128c4.40625 0 8 3.59375 8 8v16c0 4.40625-3.59375 8-8 8zm-200 56c-30.878906 0-56-25.121094-56-56s25.121094-56 56-56c3.785156 0 7.566406.375 11.238281 1.136719l6.304688 1.289062 2.609375-5.875c7.703125-17.351562 24.917968-28.550781 43.847656-28.550781 2.519531 0 5.183594.246094 8.144531.753906l4.984375.847656 2.902344-4.128906c16.503906-23.464844 43.410156-37.472656 71.96875-37.472656 35.945312 0 67.929688 21.535156 81.496094 54.871094l2.839844 6.984375 7.144531-2.414063c6.703125-2.28125 13.617187-3.441406 20.519531-3.441406 35.289062 0 64 28.710938 64 64s-28.710938 64-64 64h-40c0-10.414062-6.710938-19.214844-16-22.527344v-18.953125c9.289062-3.3125 16-12.113281 16-22.527343v-16c0-13.230469-10.769531-24-24-24h-128c-13.230469 0-24 10.769531-24 24v16c0 10.414062 6.710938 19.214843 16 22.527343v18.953125c-9.289062 3.3125-16 12.113282-16 22.527344zm64 96v-16c0-4.414062 3.59375-8 8-8h128c4.40625 0 8 3.585938 8 8v16c0 4.414062-3.59375 8-8 8h-128c-4.40625 0-8-3.585938-8-8zm-152 88h51.3125l29.65625-29.65625c1.511719-1.511719 3.527344-2.34375 5.664062-2.34375h57.367188c4.40625 0 8 3.585938 8 8v40h-160v-8c0-4.414062 3.59375-8 8-8zm144 96h-144c-4.40625 0-8-3.585938-8-8v-56h160v56c0 4.414062-3.59375 8-8 8zm80-40c-4.40625 0-8-3.585938-8-8s3.59375-8 8-8 8 3.585938 8 8-3.59375 8-8 8zm80-56h51.3125l29.65625-29.65625c1.511719-1.511719 3.527344-2.34375 5.664062-2.34375h57.367188c4.40625 0 8 3.585938 8 8v40h-160v-8c0-4.414062 3.59375-8 8-8zm144 96h-144c-4.40625 0-8-3.585938-8-8v-56h160v56c0 4.414062-3.59375 8-8 8zm0 0" data-original="#000000" class="active-path" data-old_color="#000000" fill="#B4B4B4"/><path d="m416 368h48v16h-48zm0 0" data-original="#000000" class="active-path" data-old_color="#000000" fill="#B4B4B4"/><path d="m424 136c0-26.472656-21.527344-48-48-48v16c17.648438 0 32 14.351562 32 32s-14.351562 32-32 32v16c26.472656 0 48-21.527344 48-48zm0 0" data-original="#000000" class="active-path" data-old_color="#000000" fill="#B4B4B4"/><path d="m72 144h16c0-13.230469 10.769531-24 24-24v-16c-22.054688 0-40 17.945312-40 40zm0 0" data-original="#000000" class="active-path" data-old_color="#000000" fill="#B4B4B4"/><path d="m264 48c14.960938 0 29.015625 5.824219 39.601562 16.398438l11.308594-11.308594c-13.597656-13.601563-31.679687-21.089844-50.910156-21.089844s-37.3125 7.488281-50.910156 21.089844l11.308594 11.308594c10.585937-10.574219 24.640624-16.398438 39.601562-16.398438zm0 0" data-original="#000000" class="active-path" data-old_color="#000000" fill="#B4B4B4"/><path d="m32 235.3125v76.6875h16v-76.6875l18.34375 18.34375 11.3125-11.3125-37.65625-37.65625-37.65625 37.65625 11.3125 11.3125zm0 0" data-original="#000000" class="active-path" data-old_color="#000000" fill="#B4B4B4"/><path d="m32 328h16v16h-16zm0 0" data-original="#000000" class="active-path" data-old_color="#000000" fill="#B4B4B4"/><path d="m464 216h-16v76.6875l-18.34375-18.34375-11.3125 11.3125 37.65625 37.65625 37.65625-37.65625-11.3125-11.3125-18.34375 18.34375zm0 0" data-original="#000000" class="active-path" data-old_color="#000000" fill="#B4B4B4"/><path d="m448 184h16v16h-16zm0 0" data-original="#000000" class="active-path" data-old_color="#000000" fill="#B4B4B4"/></g> </svg>
