<?xml version="1.0"?>
<svg xmlns="http://www.w3.org/2000/svg" height="512px" viewBox="0 -2 387.01695 387" width="512px" class=""><g><path d="m85.03125 367.53125c8.09375.007812 16.042969-2.128906 23.042969-6.1875 13.613281 12.007812 32.996093 14.925781 49.539062 7.457031s27.175781-23.9375 27.175781-42.089843v-275.921876c.035157-14.957031-8.386718-28.652343-21.75-35.371093-13.367187-6.71875-29.378906-5.304688-41.363281 3.644531s-17.882812 23.90625-15.234375 38.625c-20.746094-5.800781-43.011718.046875-58.226562 15.292969-15.21875 15.25-21.019532 37.527343-15.171875 58.261719-11.871094 5.335937-20.796875 15.621093-24.40625 28.125-3.609375 12.507812-1.535157 25.964843 5.671875 36.804687 2.046875 3.085937 4.476562 5.898437 7.226562 8.378906-16.375 13.578125-24.261718 34.859375-20.691406 55.828125 3.574219 20.96875 18.058594 38.441406 38.003906 45.832032v15.140624c.03125 25.492188 20.691406 46.152344 46.183594 46.179688zm-73.027344-117.171875c.03125-26.261719 21.3125-47.546875 47.578125-47.574219 3.3125 0 6-2.6875 6-6 0-3.316406-2.6875-6-6-6-9.625-.007812-19.105469 2.332032-27.625 6.816406-8.445312-6.277343-13.308593-16.269531-13.035156-26.785156s5.652344-20.242187 14.410156-26.070312c1.316407-.871094 2.695313-1.648438 4.121094-2.320313.429687.828125.871094 1.648438 1.335937 2.457031 1.066407 1.875 3.054688 3.035157 5.210938 3.039063 2.152344.003906 4.148438-1.148437 5.21875-3.019531s1.054688-4.171875-.042969-6.03125c-11.257812-19.511719-7.292969-44.242188 9.5-59.253906 16.792969-15.015626 41.8125-16.195313 59.945313-2.832032 1.726562 1.28125 4.003906 1.546875 5.972656.691406 1.972656-.859374 3.335938-2.703124 3.574219-4.839843.238281-2.132813-.683594-4.234375-2.414063-5.503907-1.453125-1.074218-2.949218-2.066406-4.476562-3-5.582032-10.050781-4.320313-22.519531 3.167968-31.246093 7.488282-8.726563 19.617188-11.867188 30.402344-7.875 10.78125 3.992187 17.941406 14.273437 17.941406 25.773437v275.925782c.007813 13.011718-7.378906 24.898437-19.046874 30.65625-11.667969 5.757812-25.59375 4.386718-35.917969-3.535157 8.582031-8.628906 13.394531-20.308593 13.386719-32.476562 0-3.316407-2.683594-6-6-6-3.3125 0-6 2.683593-6 6 0 18.875-15.300782 34.179687-34.179688 34.179687s-34.183594-15.304687-34.183594-34.179687v-12.066407c2.890625.429688 5.8125.648438 8.734375.648438 3.3125 0 6-2.6875 6-6s-2.6875-6-6-6c-26.261719-.03125-47.546875-21.3125-47.578125-47.578125zm0 0" data-original="#000000" class="active-path" data-old_color="#000000" fill="#B4B4B4"/><path d="m136.675781 196.734375c1.335938-8.804687-1.066406-17.769531-6.632812-24.722656-2.074219-2.582031-5.851563-2.996094-8.4375-.921875-2.582031 2.070312-2.996094 5.847656-.925781 8.433594 4.527343 5.660156 5.617187 13.332031 2.847656 20.027343-12.839844 5.757813-20.382813 19.253907-18.5625 33.210938.394531 2.980469 2.933594 5.214843 5.941406 5.21875.265625-.003907.527344-.019531.792969-.054688 3.285156-.429687 5.597656-3.445312 5.164062-6.730469-.390625-2.964843-.101562-5.984374.847657-8.824218 1.992187-6.011719 6.730468-10.714844 12.757812-12.667969 6.023438-1.953125 12.621094-.921875 17.765625 2.777344 2.6875 1.9375 6.4375 1.328125 8.375-1.363281 1.9375-2.6875 1.328125-6.4375-1.363281-8.375-5.410156-3.894532-11.90625-5.996094-18.570313-6.007813zm0 0" data-original="#000000" class="active-path" data-old_color="#000000" fill="#B4B4B4"/><path d="m70.667969 175.765625c2.316406-2.371094 2.269531-6.167969-.097657-8.484375-1.984374-1.945312-3.351562-4.429688-3.933593-7.148438 3.761719-6.046874 4.894531-13.367187 3.140625-20.273437-.824219-3.207031-4.09375-5.140625-7.304688-4.316406-3.210937.824219-5.144531 4.09375-4.316406 7.304687 1.652344 6.503906-1.472656 13.277344-7.492188 16.242188-2.980468 1.453125-4.21875 5.042968-2.769531 8.023437 1.453125 2.976563 5.042969 4.21875 8.023438 2.765625.457031-.222656.890625-.476562 1.332031-.722656 1.273438 2.480469 2.941406 4.742188 4.929688 6.699219 2.371093 2.316406 6.167968 2.269531 8.484374-.097657zm0 0" data-original="#000000" class="active-path" data-old_color="#000000" fill="#B4B4B4"/><path d="m101.253906 103.65625c5.472656-1.390625 11.246094.597656 14.699219 5.0625 3.457031 4.464844 3.929687 10.554688 1.210937 15.5-1.046874 1.878906-1.003906 4.171875.101563 6.011719 1.109375 1.84375 3.121094 2.949219 5.269531 2.90625 2.148438-.046875 4.105469-1.238281 5.136719-3.125 2.390625-4.347657 3.5-9.289063 3.199219-14.242188 6.785156-.167969 13.234375-2.976562 17.976562-7.828125 1.515625-1.527344 2.097656-3.753906 1.523438-5.828125-.578125-2.078125-2.222656-3.6875-4.308594-4.214843-2.089844-.527344-4.300781.101562-5.796875 1.65625-3.480469 3.550781-8.574219 5.007812-13.40625 3.84375-.101563-.167969-.199219-.335938-.3125-.5-6.160156-9.265626-17.5-13.621094-28.277344-10.871094-3.210937.824218-5.144531 4.09375-4.320312 7.304687.824219 3.210938 4.09375 5.144531 7.304687 4.320313zm0 0" data-original="#000000" class="active-path" data-old_color="#000000" fill="#B4B4B4"/><path d="m81.839844 281.949219c.050781.21875.113281.433593.1875.648437 2.113281 7.933594.277344 16.402344-4.941406 22.746094-2.066407 2.558594-1.6875 6.304688.851562 8.398438s6.289062 1.753906 8.40625-.765626c5.300781-6.4375 8.300781-14.460937 8.53125-22.796874 10.609375 2.792968 21.914062.777343 30.90625-5.511719 2.710938-1.902344 3.371094-5.640625 1.472656-8.355469-1.902344-2.714844-5.644531-3.375-8.359375-1.472656-7.722656 5.386718-17.796875 6.066406-26.171875 1.753906-1.867187-5.230469-4.878906-9.976562-8.808594-13.898438-1.515624-1.535156-3.734374-2.140624-5.816406-1.589843-2.082031.554687-3.710937 2.183593-4.261718 4.265625-.550782 2.085937.058593 4.304687 1.597656 5.8125 3 3 5.203125 6.699218 6.40625 10.765625zm0 0" data-original="#000000" class="active-path" data-old_color="#000000" fill="#B4B4B4"/><path d="m370.976562 164.390625c10.3125-2.503906 17.132813-12.3125 15.886719-22.851563-1.246093-10.542968-10.164062-18.492187-20.777343-18.523437l-23.597657-32.867187c6.332031-6.867188 7.347657-17.097657 2.496094-25.078126-4.851563-7.980468-14.40625-11.78125-23.414063-9.320312l-24.203124-10.015625-2.433594-15.644531c-.324219-2.097656-1.730469-3.863282-3.699219-4.652344l-21.65625-8.660156c-2.035156-9.914063-10.851563-16.960938-20.96875-16.7656252-10.113281.1953122-18.648437 7.5820312-20.296875 17.5625002l-24.113281 15.929687c-1.257813.832032-2.15625 2.105469-2.519531 3.570313l-5.5 22.277343c-.117188.46875-.175782.953126-.175782 1.4375v265.921876c0 1.019531.261719 2.019531.753906 2.910156l11.640626 20.988281c-4.472657 6.894531-4.511719 15.765625-.097657 22.699219 4.417969 6.933594 12.472657 10.648437 20.613281 9.507812 8.140626-1.140625 14.867188-6.925781 17.207032-14.804687h30.476562c4.128906 10.078125 15.28125 15.320312 25.675782 12.078125 10.394531-3.246094 16.582031-13.902344 14.242187-24.539063l14.664063-17.753906c8.765624 1.214844 17.34375-3.210937 21.441406-11.050781s2.832031-17.40625-3.167969-23.910156c2.339844-1.269532 4.59375-2.695313 6.742187-4.269532 10.011719 5.316406 22.433594 1.722656 28.058594-8.117187 5.621094-9.839844 2.414063-22.367188-7.25-28.292969v-43.144531c0-2.371094-1.394531-4.519531-3.5625-5.484375l-12.285156-5.460938c.332031-.550781.574219-1.152344.710938-1.78125zm4.027344-20.378906c0 4.96875-4.027344 9-9 9-4.96875 0-9-4.03125-9-9 0-4.972657 4.03125-9 9-9 4.96875.003906 8.996094 4.03125 9 9zm-39-68c0 4.96875-4.027344 9-9 9-4.96875 0-9-4.03125-9-9 0-4.972657 4.03125-9 9-9 4.96875.003906 8.996094 4.03125 9 9zm-87-64c4.972656 0 9 4.027343 9 9 0 4.96875-4.027344 9-9 9-4.96875 0-9-4.03125-9-9 .007813-4.96875 4.035156-8.996094 9-9zm-23 109h19v24.882812c-8.898437 2.648438-15 10.832031-15 20.117188 0 9.285156 6.101563 17.464843 15 20.113281v8.875h-37v-105.253906h12v25.265625c0 3.3125 2.6875 6 6 6zm55.394532 0c1.503906 7.664062 7.125 13.867187 14.605468 16.113281v22.886719h-24.882812c-2.035156-6.777344-7.339844-12.078125-14.117188-14.117188v-24.882812zm20.605468 5c-4.96875 0-9-4.03125-9-9 0-4.972657 4.03125-9 9-9 4.972656 0 9 4.027343 9 9-.003906 4.96875-4.03125 8.992187-9 9zm-51 49c-4.96875 0-9-4.03125-9-9 0-4.972657 4.03125-9 9-9 4.972656 0 9 4.027343 9 9-.003906 4.96875-4.03125 8.992187-9 9zm-43 103h35.886719c2.035156 6.777343 7.339844 12.078125 14.113281 14.113281v15.886719c0 3.3125 2.6875 6 6 6h26v25.882812c-7.480468 2.246094-13.101562 8.449219-14.605468 16.117188h-29.277344c-1.707032-5.738281-5.785156-10.476563-11.203125-13.015625-5.421875-2.542969-11.671875-2.644532-17.175781-.285156l-9.738282-17.558594zm56 3c-4.96875 0-9-4.03125-9-9 0-4.972657 4.03125-9 9-9 4.972656 0 9 4.027343 9 9-.003906 4.96875-4.03125 8.992187-9 9zm-38 90c-4.96875 0-9-4.03125-9-9 0-4.972657 4.03125-9 9-9 4.972656 0 9 4.027343 9 9-.003906 4.96875-4.03125 8.992187-9 9zm70-2c-4.96875 0-9-4.03125-9-9 0-4.972657 4.03125-9 9-9 4.972656 0 9 4.027343 9 9-.003906 4.96875-4.03125 8.992187-9 9zm14.089844-24.527344c-2.320312-2.117187-5.082031-3.683594-8.089844-4.589844v-31.882812c0-3.316407-2.683594-6-6-6h-26v-9.886719c9.625-2.867188 15.871094-12.148438 14.902344-22.144531-.964844-9.996094-8.878906-17.90625-18.871094-18.871094-9.996094-.96875-19.277344 5.277344-22.144531 14.902344h-35.886719v-59.011719h57.34375l8.847656 34.5c.679688 2.65625 3.070313 4.511719 5.808594 4.511719h35.886719c2.035156 6.777343 7.339844 12.078125 14.113281 14.113281v36.277344c-7.808594 1.503906-14.097656 7.300781-16.230468 14.960937-2.132813 7.664063.257812 15.875 6.167968 21.199219zm25.910156-95.472656c-4.96875 0-9-4.03125-9-9 0-4.972657 4.03125-9 9-9 4.972656 0 9 4.027343 9 9-.003906 4.96875-4.03125 8.992187-9 9zm-2 77c-.714844-.003907-1.425781-.09375-2.121094-.265625-.550781-.300782-1.148437-.515625-1.765624-.632813-4.113282-1.992187-6.070313-6.757812-4.550782-11.066406 1.523438-4.308594 6.039063-6.789063 10.492188-5.757813s7.421875 5.242188 6.894531 9.78125c-.523437 4.539063-4.378906 7.960938-8.949219 7.945313zm32-37c-3.480468.015625-6.65625-1.980469-8.15625-5.121094s-1.054687-6.863281 1.140625-9.5625c2.199219-2.699219 5.757813-3.890625 9.136719-3.054687.550781.300781 1.144531.515624 1.761719.628906 3.792969 1.808594 5.828125 6.007812 4.898437 10.105468-.929687 4.097657-4.578125 7.007813-8.78125 7.003907zm-1-29.949219c-7.207031.332031-13.738281 4.351562-17.285156 10.632812-3.550781 6.28125-3.621094 13.949219-.183594 20.296876-1.769531 1.179687-3.617187 2.238281-5.53125 3.167968v-33.035156c9.625-2.867188 15.871094-12.148438 14.902344-22.144531-.964844-9.996094-8.878906-17.90625-18.871094-18.871094-9.996094-.96875-19.277344 5.277344-22.144531 14.902344h-31.230469l-8.84375-34.5c-.679687-2.65625-3.070312-4.511719-5.8125-4.511719h-13v-8.875c6.777344-2.035156 12.082032-7.335938 14.117188-14.113281h48.824218v26.824219c.03125 2.421874 1.4375 4.613281 3.625 5.65625l41.433594 18.417968zm-33.058594-63.976562v-29.074219c0-3.316407-2.6875-6-6-6h-17.941406v-22.886719c9.371094-2.789062 15.574219-11.679688 14.960938-21.4375-.613282-9.757812-7.882813-17.800781-17.527344-19.394531-9.648438-1.597657-19.117188 3.675781-22.839844 12.71875h-50.59375v-25.265625c0-3.3125-2.683594-6-6-6h-18v-16.226563l4.765625-19.292969 17.582031-11.617187c3.71875 7.25 11.296876 11.6875 19.4375 11.386719 8.140626-.300782 15.371094-5.285156 18.550782-12.785156l15.265625 6.101562 6.472656 41.621094c.511719 3.273437 3.578125 5.515625 6.851563 5.003906 3.273437-.507812 5.515624-3.574219 5.007812-6.847656l-2.40625-15.472656 10.351562 4.28125c-5.121093 7.164062-5.210937 16.769531-.226562 24.027343 4.988281 7.257813 13.980469 10.621094 22.507812 8.417969l21.863282 30.445312c-6.445313 4.46875-9.855469 12.160157-8.84375 19.933594 1.015625 7.777344 6.285156 14.335938 13.660156 17l-8.585938 39.5zm0 0" data-original="#000000" class="active-path" data-old_color="#000000" fill="#B4B4B4"/></g> </svg>
