<?xml version="1.0" encoding="UTF-8"?>
<svg xmlns="http://www.w3.org/2000/svg" xmlns:xlink="http://www.w3.org/1999/xlink" width="512" height="512" viewBox="0 0 60 60" version="1.1"><!-- Generator: Sketch 51.3 (57544) - http://www.bohemiancoding.com/sketch --><title>029 - Peice of the puzzle</title><desc>Created with Sketch.</desc><defs/><g id="Page-1" stroke="none" stroke-width="1" fill="none" fill-rule="evenodd"><g id="029---Peice-of-the-puzzle" fill="#000000" fill-rule="nonzero"><path d="M3,60 L8,60 C8.84849384,59.9973386 9.6557601,59.6337052 10.22,59 L35.3,59 C36.767221,59.00049 38.206212,58.5967144 39.459,57.833 L58.2,46.424 C59.1002164,45.8754716 59.7275606,44.9729381 59.928,43.938 C60.127373,42.9349547 59.9005968,41.8941751 59.302,41.065 C59.2841686,41.0356705 59.2648086,41.0072981 59.244,40.98 C58.2783156,39.6916436 56.5953928,39.1676197 55.069,39.68 L39.579,44.843 L58.707,25.707 C59.0973819,25.3165001 59.0973819,24.6834999 58.707,24.293 L50.707,16.293 C49.1770671,14.8095403 46.7375612,14.8358675 45.24,16.352 L45.145,16.446 C44.6354969,16.9731953 44.398166,17.7062268 44.502,18.432 C44.7379481,20.3607337 43.8173259,22.2478133 42.152,23.249 C40.668702,24.1674932 38.7982616,24.1871375 37.296,23.3 C36.0743423,22.5772965 35.2616335,21.3241853 35.1,19.914 C34.9287951,18.4190709 35.4559392,16.9286389 36.528968,15.8737771 C37.6019968,14.8189154 39.101212,14.3172957 40.593,14.514 C41.3024054,14.6151158 42.0185209,14.3808448 42.531,13.88 L42.643,13.769 C44.1624022,12.2702302 44.1891854,9.82671375 42.703,8.295 L34.703,0.295 C34.3125001,-0.0953819383 33.6794999,-0.0953819383 33.289,0.295 L25.039,8.536 C24.6821832,8.89859559 24.1976222,9.10713631 23.689,9.117 C23.182662,9.14737388 22.6906825,8.94216715 22.356,8.561 L22.3,8.505 C22.2547184,8.43411777 22.239264,8.34822012 22.257,8.266 C22.6163057,6.23099347 21.989781,4.14612403 20.5682183,2.64628675 C19.1466557,1.14644947 17.0983271,0.409181703 15.047,0.659 C12.9219539,0.904948716 11.0260249,2.10910489 9.9,3.928 C8.56958855,6.04010152 8.51952868,8.71560907 9.77,10.876 C11.1502498,13.216568 13.8322869,14.461899 16.511,14.006 C16.6038408,13.9840396 16.70164,14.0025815 16.78,14.057 L16.86,14.137 C17.2011194,14.4800881 17.3877917,14.9473106 17.377,15.431 C17.3689293,15.9397938 17.1617857,16.425163 16.8,16.783 L8.55,25.022 C8.36222296,25.2095683 8.25671334,25.4640908 8.25671334,25.7295 C8.25671334,25.9949092 8.36222296,26.2494317 8.55,26.437 L19.837,37.721 C19.5909389,37.5671212 19.3532674,37.400217 19.125,37.221 C17.328461,35.786763 15.09882,35.003833 12.8,35 L10.816,35 C10.3937454,33.8056491 9.26678543,33.0052514 8,33 L3,33 C1.34314575,33 2.02906125e-16,34.3431458 0,36 L0,57 C2.02906125e-16,58.6568542 1.34314575,60 3,60 Z M10.675,25.73 L18.217,18.2 C18.9486007,17.4746695 19.3662218,16.4911233 19.38,15.461 C19.4014836,14.4375029 19.0041572,13.449605 18.28,12.726 L18.201,12.647 C17.6738033,12.1294297 16.9275536,11.9010772 16.201,12.035 C14.3332829,12.3501247 12.4645102,11.4817418 11.501,9.851 C10.6322779,8.3406509 10.67038,6.47364824 11.6,5 C12.4011552,3.69696399 13.7540883,2.83172031 15.273,2.651 C16.7022346,2.47295803 18.1307983,2.9864035 19.119683,4.03355084 C20.1085677,5.08069818 20.539481,6.53628544 20.28,7.953 C20.1599136,8.67859338 20.3940704,9.41785966 20.91,9.942 L20.983,10.007 C21.6925793,10.7198146 22.6582233,11.1185344 23.664,11.114 L23.725,11.114 C24.7529799,11.0969643 25.7335132,10.6784791 26.457,9.948 L34,2.414 L41.29,9.7 C42.0004214,10.4485948 41.9758925,11.6295496 41.235,12.348 L41.122,12.459 C41.0469132,12.5165952 40.9514646,12.5408189 40.858,12.526 C38.7539492,12.248678 36.6395651,12.9570411 35.1272313,14.4459278 C33.6148975,15.9348146 32.8735857,18.0378732 33.118,20.146 C33.3578811,22.159509 34.5121785,23.950164 36.247,25 C38.3948291,26.2764102 41.0736289,26.2552232 43.201,24.945 C45.5354905,23.5364834 46.8216582,20.885379 46.483,18.18 C46.460568,18.0679204 46.4859416,17.9515646 46.553,17.859 L46.647,17.765 C47.3636071,17.0234554 48.5435166,16.9967001 49.293,17.705 L56.586,25 L35.6,46 L35.043,46 C35.5185238,44.6983137 35.3818626,43.2516152 34.671,42.062 L34.581,41.913 C33.4912053,40.1093784 31.5392915,39.0051009 29.432,39 L24.2,39 C24.11,39 24.021,38.991 23.931,38.988 L10.675,25.73 Z M17.875,38.781 C19.4851832,40.0632487 21.4466425,40.8265615 23.5,40.97 C23.733,40.986 23.966,41 24.2,41 L29.431,41 C30.8345087,41.003879 32.1343268,41.7396466 32.86,42.941 L32.95,43.09 C33.4956847,44.000432 33.4364029,45.1505004 32.8,46 L26.725,46 C24.7503972,45.9981093 22.8197376,46.5828413 21.178,47.68 L20.445,48.168 C19.9854991,48.474518 19.861482,49.0954991 20.168,49.555 C20.474518,50.0145009 21.0954991,50.138518 21.555,49.832 L22.287,49.344 C23.6005346,48.4662632 25.1451922,47.9984804 26.725,48 L35.613,48 C35.737,48 35.858,47.979 35.981,47.97 C35.998,47.97 36.014,47.98 36.03,47.98 C36.0701111,47.9748449 36.1098568,47.9671629 36.149,47.957 C36.5042763,47.9235823 36.8549465,47.8521743 37.195,47.744 L55.706,41.573 C56.3837007,41.3393005 57.1353064,41.5490973 57.594,42.1 C57.611,42.129 57.631,42.157 57.651,42.185 C57.945741,42.5772757 58.0610479,43.0758109 57.9684859,43.5576665 C57.8759239,44.0395221 57.584108,44.459851 57.165,44.715 L38.42,56.125 C37.4799324,56.6972941 36.4005669,57.0000007 35.3,57 L11,57 L11,37 L12.8,37 C14.6444353,37.0024479 16.4335262,37.6303042 17.875,38.781 Z M2,36 C2,35.4477153 2.44771525,35 3,35 L8,35 C8.55228475,35 9,35.4477153 9,36 L9,57 C9,57.5522847 8.55228475,58 8,58 L3,58 C2.44771525,58 2,57.5522847 2,57 L2,36 Z" id="Shape"/></g></g></svg>
